Coordinates
version=1
nRows=25
nColumns=33
inDegrees=yes

Units are S.I. units (second, meters, Newtons, ...)
Angles are in degrees.

endheader
time	ground_thorax_rot_x	ground_thorax_rot_y	ground_thorax_rot_z	ground_thorax_tx	ground_thorax_ty	ground_thorax_tz	clav_prot_r	clav_elev_r	scapula_abduction_r	scapula_elevation_r	scapula_upward_rot_r	scapula_winging_r	shoulder_elv_r	plane_of_elev_r	axial_rot_r	elbow_flexion_r	pro_sup_r	wrist_flex_r	wrist_dev_r	clav_prot_l	clav_elev_l	scapula_abduction_l	scapula_elevation_l	scapula_upward_rot_l	scapula_winging_l	shoulder_elv_l	plane_of_elev_l	axial_rot_l	elbow_flexion_l	pro_sup_l	wrist_flex_l	wrist_dev_l	
5.9400	-37.723661	-15.972895	19.564901	-197.761029	824.243557	5.195876	9.311783	-45.000000	39.174857	-45.000000	-45.000000	3138.017251	-465.613630	147.927842	-108.724731	1105.069853	168.119785	11.049147	5.137500	15.421748	38.069259	-37.777483	-45.000000	-45.000000	-2074.461087	984.594146	134.811908	-168.735841	2169.645001	18.387601	8.992126	-21.967031	
5.9500	-37.630784	-16.329255	20.007393	-193.711505	823.321289	5.146470	9.340065	-45.000000	39.239322	-45.000000	-45.000000	3138.240967	-465.678642	147.860819	-108.785032	1104.992427	170.270714	10.891594	5.092297	15.493537	38.095283	-37.913234	-45.000000	-45.000000	-2074.586240	984.557923	134.750661	-168.659865	2169.663145	18.104256	9.228406	-21.826945	
5.9600	-37.521453	-16.719983	20.493990	-189.492540	822.226216	5.091820	9.381505	-45.000000	39.303446	-45.000000	-45.000000	3138.469969	-465.769750	147.797716	-108.803384	1104.898605	172.348836	10.737317	5.028825	15.547188	38.116293	-38.029181	-45.000000	-45.000000	-2074.722994	984.507423	134.677782	-168.572795	2169.660581	17.922316	9.465970	-21.683140	
5.9700	-37.393107	-17.144461	21.032626	-185.112331	820.946284	5.028567	9.414832	-45.000000	39.358150	-45.000000	-45.000000	3138.708726	-465.883555	147.750360	-108.788865	1104.789030	174.351058	10.587774	4.944436	15.600175	38.136077	-38.130783	-45.000000	-45.000000	-2074.881532	984.437690	134.611881	-168.476281	2169.640701	17.847653	9.700986	-21.539043	
5.9800	-37.242437	-17.599877	21.622909	-180.581331	819.473937	4.954143	9.441100	-45.000000	39.403644	-45.000000	-45.000000	3138.956006	-466.024059	147.720405	-108.736721	1104.662404	176.267146	10.443591	4.838137	15.649881	38.155225	-38.214425	-45.000000	-45.000000	-2075.063410	984.347030	134.552070	-168.371856	2169.599268	17.885664	9.935528	-21.397092	
5.9900	-37.067410	-18.083044	22.264870	-175.912941	817.807543	4.866796	9.459024	-45.000000	39.441949	-45.000000	-45.000000	3139.210715	-466.189747	147.712546	-108.645027	1104.522890	178.092915	10.304899	4.708170	15.693751	38.172741	-38.279167	-45.000000	-45.000000	-2075.272256	984.236176	134.504474	-168.268349	2169.536532	18.035569	10.166891	-21.258846	
6.0000	-36.861559	-18.603118	22.961349	-171.122214	815.951831	4.765503	9.488879	-45.000000	39.481820	-45.000000	-45.000000	3139.466533	-466.386855	147.721686	-108.496659	1104.370727	179.805724	10.173663	4.553063	15.706055	38.180110	-38.304496	-45.000000	-45.000000	-2075.500654	984.110086	134.461716	-168.183106	2169.453136	18.290868	10.395529	-21.124885	
6.0100	-36.626014	-19.151951	23.709333	-166.226267	813.918952	4.649428	9.520760	-45.000000	39.516314	-45.000000	-45.000000	3139.725921	-466.611508	147.753176	-108.292805	1104.207840	181.397737	10.050920	4.376214	15.703444	38.184283	-38.300066	-45.000000	-45.000000	-2075.748754	983.963090	134.434891	-168.127837	2169.356052	18.641511	10.614493	-20.996604	
6.0200	-36.358059	-19.729797	24.507104	-161.242717	811.727392	4.518081	9.566117	-45.000000	39.548090	-45.000000	-45.000000	3139.983842	-466.868062	147.803319	-108.019751	1104.034017	182.849355	9.939139	4.178858	15.672995	38.179899	-38.255411	-45.000000	-45.000000	-2076.010476	983.797763	134.417998	-168.115452	2169.245912	19.077684	10.824551	-20.874075	
6.0300	-36.061349	-20.325791	25.346314	-156.190521	809.401405	4.371207	9.627385	-45.000000	39.578427	-45.000000	-45.000000	3140.239402	-467.159851	147.875513	-107.670478	1103.851190	184.144989	9.840764	3.963533	15.613704	38.170139	-38.176239	-45.000000	-45.000000	-2076.284701	983.614205	134.410816	-168.150319	2169.125277	19.590812	11.026935	-20.758225	
6.0400	-35.730428	-20.946862	26.231881	-151.088805	806.968157	4.209464	9.724105	-45.000000	39.613622	-45.000000	-45.000000	3140.480332	-467.493135	147.960251	-107.224024	1103.654160	185.263350	9.760988	3.727014	15.483559	38.145967	-38.046952	-45.000000	-45.000000	-2076.577171	983.418571	134.418729	-168.232971	2168.995975	20.171938	11.228829	-20.649112	
6.0500	-35.382219	-21.554537	27.131518	-145.958016	804.456212	4.034711	9.785545	-45.000000	39.624161	-45.000000	-45.000000	3140.732655	-467.838471	148.070478	-106.716819	1103.450799	186.233751	9.697354	3.482464	15.397870	38.136727	-37.917357	-45.000000	-45.000000	-2076.885093	983.190103	134.447045	-168.338746	2168.855821	20.821593	11.411595	-20.548161	
6.0600	-35.015568	-22.147241	28.039279	-140.818650	801.892855	3.850803	9.818888	-45.000000	39.615787	-45.000000	-45.000000	3140.992928	-468.189355	148.202850	-106.145159	1103.243831	187.065500	9.650851	3.231410	15.352440	38.137185	-37.782003	-45.000000	-45.000000	-2077.204942	982.932630	134.486588	-168.454405	2168.698457	21.540986	11.576652	-20.455831	
6.0700	-34.637846	-22.711926	28.939964	-135.691833	799.303970	3.663096	9.809746	-45.000000	39.584273	-45.000000	-45.000000	3141.268420	-468.537488	148.362796	-105.526470	1103.040187	187.762198	9.620603	2.979041	15.380574	38.155627	-37.649500	-45.000000	-45.000000	-2077.530575	982.648561	134.525366	-168.564576	2168.518795	22.333245	11.718248	-20.372809	
6.0800	-34.237230	-23.275082	29.856251	-130.598055	796.713587	3.478046	9.825484	-45.000000	39.555159	-45.000000	-45.000000	3141.527660	-468.907373	148.535571	-104.839480	1102.830142	188.274931	9.613859	2.714592	15.374263	38.163820	-37.486081	-45.000000	-45.000000	-2077.862382	982.354247	134.564030	-168.671088	2168.319378	23.190866	11.852645	-20.299297	
6.0900	-33.821859	-23.820157	30.775066	-125.557646	794.144825	3.302313	9.821196	-45.000000	39.509780	-45.000000	-45.000000	3141.783990	-469.283913	148.730173	-104.133823	1102.618250	188.568147	9.631234	2.443981	15.396197	38.175300	-37.311395	-45.000000	-45.000000	-2078.201116	982.042722	134.606733	-168.761243	2168.100709	24.109806	11.966432	-20.234878	
6.1000	-33.391134	-24.353086	31.698592	-120.590142	791.619788	3.142624	9.810850	-45.000000	39.456415	-45.000000	-45.000000	3142.033427	-469.668189	148.946826	-103.430434	1102.402697	188.555164	9.678412	2.171060	15.410034	38.186520	-37.111050	-45.000000	-45.000000	-2078.551378	981.725930	134.651674	-168.825095	2167.863080	25.086497	12.065638	-20.179941	
6.1100	-32.950955	-24.867737	32.617751	-115.714496	789.159660	3.005393	9.775710	-45.000000	39.389372	-45.000000	-45.000000	3142.281982	-470.052037	149.186752	-102.783776	1102.180272	188.107888	9.762179	1.904802	15.431477	38.204093	-36.884432	-45.000000	-45.000000	-2078.920085	981.412143	134.697762	-168.843724	2167.605611	26.120828	12.147507	-20.134363	
6.1200	-32.502503	-25.369086	33.531555	-110.949100	786.784275	2.896877	9.745239	-45.000000	39.320419	-45.000000	-45.000000	3142.521710	-470.441653	149.440195	-102.229023	1101.933977	187.038200	9.896006	1.658134	15.419402	38.221844	-36.628227	-45.000000	-45.000000	-2079.304388	981.108148	134.743601	-168.798593	2167.326799	27.203877	12.221948	-20.098097	
6.1300	-32.052990	-25.847550	34.425143	-106.311452	784.511498	2.823153	9.692912	-45.000000	39.239311	-45.000000	-45.000000	3142.760471	-470.821253	149.701413	-101.880087	1101.643786	185.017617	10.094848	1.467345	15.431188	38.244539	-36.361142	-45.000000	-45.000000	-2079.694172	980.805183	134.785056	-168.668618	2167.022388	28.330709	12.277213	-20.069292	
6.1400	-31.609286	-26.301035	35.287601	-101.817833	782.356996	2.790132	9.626359	-45.000000	39.149343	-45.000000	-45.000000	3142.998476	-471.183924	149.959512	-101.843462	1101.285894	181.639408	10.377549	1.381476	15.465021	38.270731	-36.089096	-45.000000	-45.000000	-2080.077928	980.505518	134.810459	-168.440000	2166.690138	29.500608	12.314398	-20.047793	
6.1500	-31.162462	-26.746915	36.135517	-97.482925	780.334339	2.803099	9.591868	-45.000000	39.071881	-45.000000	-45.000000	3143.204585	-471.545995	150.185259	-102.404743	1100.750936	175.724338	10.794287	1.511844	15.454179	38.273526	-35.801647	-45.000000	-45.000000	-2080.458631	980.213850	134.824248	-168.089715	2166.325971	30.724535	12.341323	-20.033313	
6.1600	-30.716152	-27.185531	36.967459	-93.319983	778.455577	2.866280	9.599076	-45.000000	39.013035	-45.000000	-45.000000	3143.370638	-471.908251	150.363434	-103.737820	1099.975883	166.616570	11.367821	1.945652	15.383778	38.246702	-35.501583	-45.000000	-45.000000	-2080.832977	979.935489	134.821873	-167.619059	2165.928284	31.993108	12.360893	-20.022704	
6.1700	-30.277607	-27.611493	37.770045	-89.340670	776.731295	2.982442	9.625265	-45.000000	38.965476	-45.000000	-45.000000	3143.505081	-472.243359	150.432339	-107.106893	1098.505801	149.203472	12.276892	3.235572	15.277140	38.198653	-35.192081	-45.000000	-45.000000	-2081.213599	979.693530	134.786148	-166.879335	2165.485395	33.443414	12.359383	-20.033675	
6.1800	-29.858117	-28.010952	38.524366	-85.555608	775.170911	3.152591	9.628262	-45.000000	38.919964	-45.000000	-45.000000	3143.632927	-472.531188	150.421272	-112.120250	1096.484342	125.481245	13.416031	5.262316	15.195985	38.149858	-34.892350	-45.000000	-45.000000	-2081.594866	979.474861	134.731104	-165.984782	2165.014571	34.977898	12.327235	-20.051858	
